# Blender v2.79 (sub 0) OBJ File: 'untitled.blend'
# www.blender.org
o Plane
v 1.000000 2.448056 1.000000
v -1.000000 2.448056 1.000000
v 1.000000 2.448056 -1.000000
v -1.000000 2.448056 -1.000000
v 1.000000 -0.002358 1.000000
v -1.000000 -0.002358 1.000000
v 1.000000 -0.002358 -1.000000
v -1.000000 -0.002358 -1.000000
v -1.000000 2.371273 1.000000
v -1.000000 2.371273 -1.000000
v 1.000000 2.371273 -1.000000
v 1.000000 2.371273 1.000000
v -1.000000 1.616925 1.000000
v -1.000000 1.616925 -1.000000
v 1.000000 1.616925 -1.000000
v 1.000000 1.616925 1.000000
v -1.000000 1.551449 1.000000
v -1.000000 1.551449 -1.000000
v 1.000000 1.551449 -1.000000
v 1.000000 1.551449 1.000000
v -1.000000 0.826031 1.000000
v -1.000000 0.826031 -1.000000
v 1.000000 0.826031 -1.000000
v 1.000000 0.826031 1.000000
v -1.000000 0.761878 1.000000
v -1.000000 0.761878 -1.000000
v 1.000000 0.761878 -1.000000
v 1.000000 0.761878 1.000000
v -1.000000 0.080394 1.000000
v -1.000000 0.080394 -1.000000
v 1.000000 0.080394 -1.000000
v 1.000000 0.080394 1.000000
v 0.929790 2.448056 1.000000
v 0.929790 2.448056 -1.000000
v 0.929790 -0.002358 1.000000
v 0.929790 -0.002358 -1.000000
v 0.929790 2.371273 -1.000000
v 0.929790 2.371273 1.000000
v 0.929790 1.616925 -1.000000
v 0.929790 1.616925 1.000000
v 0.929790 1.551449 -1.000000
v 0.929790 1.551449 1.000000
v 0.929790 0.826031 -1.000000
v 0.929790 0.826031 1.000000
v 0.929790 0.761878 -1.000000
v 0.929790 0.761878 1.000000
v 0.929790 0.080394 -1.000000
v 0.929790 0.080394 1.000000
v -0.927866 2.448056 1.000000
v -0.927866 2.448056 -1.000000
v -0.927866 -0.002358 1.000000
v -0.927866 -0.002358 -1.000000
v -0.927866 2.371273 1.000000
v -0.927866 1.616925 1.000000
v -0.927866 1.551449 1.000000
v -0.927866 0.826031 1.000000
v -0.927866 0.761878 1.000000
v -0.927866 0.080394 1.000000
v -0.927866 2.371273 -1.000000
v -0.927866 1.616925 -1.000000
v -0.927866 1.551449 -1.000000
v -0.927866 0.826031 -1.000000
v -0.927866 0.761878 -1.000000
v -0.927866 0.080394 -1.000000
v 0.929790 2.371273 1.027965
v 0.929790 1.616925 1.027965
v -0.927866 2.371273 1.027965
v -0.927866 1.616925 1.027965
v 0.929790 1.551449 1.027965
v 0.929790 0.826031 1.027965
v -0.927866 1.551449 1.027965
v -0.927866 0.826031 1.027965
v 0.929790 0.761878 1.034956
v 0.929790 0.080394 1.034956
v -0.927866 0.761878 1.034956
v -0.927866 0.080394 1.034956
v 0.929790 2.371273 -0.902128
v 0.929790 1.616925 -0.902128
v 0.929790 1.551449 -0.902128
v 0.929790 0.826031 -0.902128
v 0.929790 0.761878 -0.902128
v 0.929790 0.080394 -0.902128
v -0.927866 2.371273 -0.902128
v -0.927866 1.616925 -0.902128
v -0.927866 1.551449 -0.902128
v -0.927866 0.826031 -0.902128
v -0.927866 0.761878 -0.902128
v -0.927866 0.080394 -0.902128
v -1.000000 1.994099 1.000000
v -1.000000 1.994099 -1.000000
v 1.000000 1.994099 -1.000000
v 1.000000 1.994099 1.000000
v 0.929790 1.994099 -1.000000
v 0.929790 1.994099 1.000000
v -0.927866 1.994099 -1.000000
v -0.927866 1.994099 1.000000
v 0.929790 1.994099 1.027965
v -0.927866 1.994099 1.027965
v 0.929790 1.994099 -0.902128
v -0.927866 1.994099 -0.902128
v -1.000000 1.188740 1.000000
v -1.000000 1.188740 -1.000000
v 1.000000 1.188740 -1.000000
v 1.000000 1.188740 1.000000
v 0.929790 1.188740 -1.000000
v 0.929790 1.188740 1.000000
v -0.927866 1.188740 -1.000000
v -0.927866 1.188740 1.000000
v 0.929790 1.188740 1.027965
v -0.927866 1.188740 1.027965
v 0.929790 1.188740 -0.902128
v -0.927866 1.188740 -0.902128
v -1.000000 0.421136 1.000000
v -1.000000 0.421136 -1.000000
v 1.000000 0.421136 -1.000000
v 1.000000 0.421136 1.000000
v 0.929790 0.421136 -1.000000
v 0.929790 0.421136 1.000000
v -0.927866 0.421136 -1.000000
v -0.927866 0.421136 1.000000
v 0.929790 0.421136 1.034956
v -0.927866 0.421136 1.034956
v 0.929790 0.421136 -0.902128
v -0.927866 0.421136 -0.902128
v -1.000000 2.061705 1.000000
v -1.000000 2.061705 -1.000000
v 1.000000 2.061705 -1.000000
v 1.000000 2.061705 1.000000
v 0.929790 2.061705 -1.000000
v 0.929790 2.061705 1.000000
v -0.927866 2.061705 -1.000000
v -0.927866 2.061705 1.000000
v 0.929790 2.061705 1.027965
v -0.927866 2.061705 1.027965
v 0.929790 2.061705 -0.902128
v -0.927866 2.061705 -0.902128
v -1.000000 1.238472 1.000000
v -1.000000 1.238472 -1.000000
v 1.000000 1.238472 -1.000000
v 1.000000 1.238472 1.000000
v 0.929790 1.238472 -1.000000
v 0.929790 1.238472 1.000000
v -0.927866 1.238472 -1.000000
v -0.927866 1.238472 1.000000
v 0.929790 1.238472 1.027965
v -0.927866 1.238472 1.027965
v 0.929790 1.238472 -0.902128
v -0.927866 1.238472 -0.902128
v -1.000000 0.464472 1.000000
v -1.000000 0.464472 -1.000000
v 1.000000 0.464472 -1.000000
v 1.000000 0.464472 1.000000
v 0.929790 0.464472 -1.000000
v 0.929790 0.464472 1.000000
v -0.927866 0.464472 -1.000000
v -0.927866 0.464472 1.000000
v 0.929790 0.464472 1.034956
v -0.927866 0.464472 1.034956
v 0.929790 0.464472 -0.902128
v -0.927866 0.464472 -0.902128
v -0.176399 2.448056 1.000000
v -0.176399 2.448056 -1.000000
v -0.176399 -0.002358 1.000000
v -0.176399 -0.002358 -1.000000
v -0.176399 2.371273 1.000000
v -0.176399 1.616925 1.000000
v -0.176399 1.551449 1.000000
v -0.176399 0.826031 1.000000
v -0.176399 0.761878 1.000000
v -0.176399 0.080394 1.000000
v -0.176399 2.371273 -1.000000
v -0.176399 0.080394 -1.000000
v -0.176399 2.371273 1.027965
v -0.176399 1.616925 1.027965
v -0.176399 1.551449 1.027965
v -0.176399 0.826031 1.027965
v -0.176399 0.761878 1.034956
v -0.176399 0.080394 1.034956
v -0.176399 2.371273 -0.902128
v -0.176399 1.616925 -0.902128
v -0.176399 1.551449 -0.902128
v -0.176399 0.826031 -0.902128
v -0.176399 0.761878 -0.902128
v -0.176399 0.080394 -0.902128
v -0.176399 1.994099 1.027965
v -0.176399 1.994099 -0.902128
v -0.176399 1.188740 1.027965
v -0.176399 1.188740 -0.902128
v -0.176399 0.421136 1.034956
v -0.176399 0.421136 -0.902128
v -0.176399 2.061705 1.027965
v -0.176399 2.061705 -0.902128
v -0.176399 1.238472 1.027965
v -0.176399 1.238472 -0.902128
v -0.176399 0.464472 1.034956
v -0.176399 0.464472 -0.902128
v 0.179701 2.448056 1.000000
v 0.179701 2.448056 -1.000000
v 0.179701 -0.002358 1.000000
v 0.179701 -0.002358 -1.000000
v 0.179701 2.371273 1.000000
v 0.179701 1.616925 1.000000
v 0.179701 1.551449 1.000000
v 0.179701 0.826031 1.000000
v 0.179701 0.761878 1.000000
v 0.179701 0.080394 1.000000
v 0.179701 2.371273 -1.000000
v 0.179701 0.080394 -1.000000
v 0.179701 2.371273 1.027965
v 0.179701 1.616925 1.027965
v 0.179701 1.551449 1.027965
v 0.179701 0.826031 1.027965
v 0.179701 0.761878 1.034956
v 0.179701 0.080394 1.034956
v 0.179701 2.371273 -0.902128
v 0.179701 1.616925 -0.902128
v 0.179701 1.551449 -0.902128
v 0.179701 0.826031 -0.902128
v 0.179701 0.761878 -0.902128
v 0.179701 0.080394 -0.902128
v 0.179701 1.994099 -0.902128
v 0.179701 1.188740 -0.902128
v 0.179701 0.421136 -0.902128
v 0.179701 2.061705 -0.902128
v 0.179701 1.238472 -0.902128
v 0.179701 0.464472 -0.902128
v 0.179701 1.994099 1.027965
v 0.179701 1.188740 1.027965
v 0.179701 0.421136 1.034956
v 0.179701 2.061705 1.027965
v 0.179701 1.238472 1.027965
v 0.179701 0.464472 1.034956
v -0.247207 1.994099 1.027965
v -0.247207 1.188740 1.027965
v -0.247207 0.421136 1.034956
v -0.247207 2.061705 1.027965
v -0.247207 1.238472 1.027965
v -0.247207 0.464472 1.034956
v -0.247207 2.448056 1.000000
v -0.247207 2.448056 -1.000000
v -0.247207 -0.002358 1.000000
v -0.247207 -0.002358 -1.000000
v -0.247207 2.371273 1.000000
v -0.247207 1.616925 1.000000
v -0.247207 1.551449 1.000000
v -0.247207 0.826031 1.000000
v -0.247207 0.761878 1.000000
v -0.247207 0.080394 1.000000
v -0.247207 2.371273 -1.000000
v -0.247207 0.080394 -1.000000
v -0.247207 2.371273 1.027965
v -0.247207 1.616925 1.027965
v -0.247207 1.551449 1.027965
v -0.247207 0.826031 1.027965
v -0.247207 0.761878 1.034956
v -0.247207 0.080394 1.034956
v -0.247207 2.371273 -0.902128
v -0.247207 1.616925 -0.902128
v -0.247207 1.551449 -0.902128
v -0.247207 0.826031 -0.902128
v -0.247207 0.761878 -0.902128
v -0.247207 0.080394 -0.902128
v -0.247207 1.994099 -0.902128
v -0.247207 1.188740 -0.902128
v -0.247207 0.421136 -0.902128
v -0.247207 2.061705 -0.902128
v -0.247207 1.238472 -0.902128
v -0.247207 0.464472 -0.902128
v 0.238140 2.448056 1.000000
v 0.238140 2.448056 -1.000000
v 0.238140 -0.002358 1.000000
v 0.238140 -0.002358 -1.000000
v 0.238140 2.371273 1.000000
v 0.238140 1.616925 1.000000
v 0.238140 1.551449 1.000000
v 0.238140 0.826031 1.000000
v 0.238140 0.761878 1.000000
v 0.238140 0.080394 1.000000
v 0.238140 2.371273 -1.000000
v 0.238140 0.080394 -1.000000
v 0.238140 2.371273 1.027965
v 0.238140 1.616925 1.027965
v 0.238140 1.551449 1.027965
v 0.238140 0.826031 1.027965
v 0.238140 0.761878 1.034956
v 0.238140 0.080394 1.034956
v 0.238140 2.371273 -0.902128
v 0.238140 1.616925 -0.902128
v 0.238140 1.551449 -0.902128
v 0.238140 0.826031 -0.902128
v 0.238140 0.761878 -0.902128
v 0.238140 0.080394 -0.902128
v 0.238140 1.994099 -0.902128
v 0.238140 1.188740 -0.902128
v 0.238140 0.421136 -0.902128
v 0.238140 2.061705 -0.902128
v 0.238140 1.238472 -0.902128
v 0.238140 0.464472 -0.902128
v 0.238140 1.994099 1.027965
v 0.238140 1.188740 1.027965
v 0.238140 0.421136 1.034956
v 0.238140 2.061705 1.027965
v 0.238140 1.238472 1.027965
v 0.238140 0.464472 1.034956
v -0.176399 1.994099 1.099997
v -0.176399 1.188740 1.099997
v -0.176399 0.421136 1.106988
v -0.176399 2.061705 1.099997
v -0.176399 1.238472 1.099997
v -0.176399 0.464472 1.106988
v 0.179701 1.994099 1.099997
v 0.179701 1.188740 1.099997
v 0.179701 0.421136 1.106988
v 0.179701 2.061705 1.099997
v 0.179701 1.238472 1.099997
v 0.179701 0.464472 1.106988
v -0.247207 1.994099 1.099997
v -0.247207 1.188740 1.099997
v -0.247207 0.421136 1.106988
v -0.247207 2.061705 1.099997
v -0.247207 1.238472 1.099997
v -0.247207 0.464472 1.106988
v 0.238140 1.994099 1.099997
v 0.238140 1.188740 1.099997
v 0.238140 0.421136 1.106988
v 0.238140 2.061705 1.099997
v 0.238140 1.238472 1.099997
v 0.238140 0.464472 1.106988
v 0.238140 1.994099 1.069983
v 0.179701 1.994099 1.069983
v -0.247207 2.061705 1.069983
v -0.176399 2.061705 1.069983
v 0.179701 2.061705 1.069983
v 0.238140 2.061705 1.069983
v -0.247207 1.994099 1.069983
v -0.176399 1.994099 1.069983
v -0.247207 1.238472 1.063981
v -0.247207 1.188740 1.063981
v 0.179701 1.238472 1.063981
v -0.176399 1.238472 1.063981
v -0.176399 1.188740 1.063981
v 0.179701 1.188740 1.063981
v 0.238140 1.188740 1.063981
v 0.238140 1.238472 1.063981
v 0.238140 0.464472 1.076250
v 0.179701 0.464472 1.076250
v -0.176399 0.464472 1.076250
v -0.247207 0.464472 1.076250
v 0.179701 0.421136 1.076250
v 0.238140 0.421136 1.076250
v -0.247207 0.421136 1.076250
v -0.176399 0.421136 1.076250
vn 0.0000 1.0000 0.0000
vn 0.0000 -1.0000 0.0000
vn -1.0000 0.0000 0.0000
vn 0.0000 0.0000 -1.0000
vn 1.0000 0.0000 0.0000
vn 0.0000 0.0000 1.0000
s off
f 33//1 1//1 3//1 34//1
f 35//2 36//2 7//2 5//2
f 30//3 8//3 6//3 29//3
f 64//4 52//4 8//4 30//4
f 32//5 5//5 7//5 31//5
f 48//6 35//6 5//6 32//6
f 4//3 10//3 9//3 2//3
f 50//4 59//4 10//4 4//4
f 1//5 12//5 11//5 3//5
f 33//6 38//6 12//6 1//6
f 90//3 14//3 13//3 89//3
f 95//4 60//4 14//4 90//4
f 92//5 16//5 15//5 91//5
f 94//6 40//6 16//6 92//6
f 14//3 18//3 17//3 13//3
f 60//4 61//4 18//4 14//4
f 16//5 20//5 19//5 15//5
f 40//6 42//6 20//6 16//6
f 102//3 22//3 21//3 101//3
f 107//4 62//4 22//4 102//4
f 104//5 24//5 23//5 103//5
f 106//6 44//6 24//6 104//6
f 22//3 26//3 25//3 21//3
f 62//4 63//4 26//4 22//4
f 24//5 28//5 27//5 23//5
f 44//6 46//6 28//6 24//6
f 114//3 30//3 29//3 113//3
f 119//4 64//4 30//4 114//4
f 116//5 32//5 31//5 115//5
f 118//6 48//6 32//6 116//6
f 269//1 33//1 34//1 270//1
f 271//2 272//2 36//2 35//2
f 31//4 7//4 36//4 47//4
f 278//6 271//6 35//6 48//6
f 3//4 11//4 37//4 34//4
f 269//6 273//6 38//6 33//6
f 91//4 15//4 39//4 93//4
f 132//3 134//3 67//3 53//3
f 15//4 19//4 41//4 39//4
f 274//6 275//6 42//6 40//6
f 103//4 23//4 43//4 105//4
f 144//3 146//3 71//3 55//3
f 23//4 27//4 45//4 43//4
f 276//6 277//6 46//6 44//6
f 115//4 31//4 47//4 117//4
f 156//3 158//3 75//3 57//3
f 250//4 242//4 52//4 64//4
f 240//4 249//4 59//4 50//4
f 41//3 79//3 78//3 39//3
f 95//5 100//5 84//5 60//5
f 45//3 81//3 80//3 43//3
f 119//5 124//5 88//5 64//5
f 129//3 135//3 77//3 37//3
f 2//1 49//1 50//1 4//1
f 6//2 8//2 52//2 51//2
f 29//6 6//6 51//6 58//6
f 2//6 9//6 53//6 49//6
f 89//6 13//6 54//6 96//6
f 13//6 17//6 55//6 54//6
f 101//6 21//6 56//6 108//6
f 21//6 25//6 57//6 56//6
f 113//6 29//6 58//6 120//6
f 299//6 282//6 66//6 97//6
f 273//1 281//1 65//1 38//1
f 244//2 252//2 68//2 54//2
f 94//5 97//5 66//5 40//5
f 300//6 284//6 70//6 109//6
f 106//5 109//5 70//5 44//5
f 275//1 283//1 69//1 42//1
f 246//2 254//2 72//2 56//2
f 301//6 286//6 74//6 121//6
f 118//5 121//5 74//5 48//5
f 248//2 256//2 76//2 58//2
f 277//1 285//1 73//1 46//1
f 263//4 258//4 84//4 100//4
f 258//4 259//4 85//4 84//4
f 264//4 260//4 86//4 112//4
f 260//4 261//4 87//4 86//4
f 265//4 262//4 88//4 124//4
f 60//5 84//5 85//5 61//5
f 153//3 159//3 81//3 45//3
f 107//5 112//5 86//5 62//5
f 280//1 292//1 82//1 47//1
f 141//3 147//3 79//3 41//3
f 249//2 257//2 83//2 59//2
f 62//5 86//5 87//5 63//5
f 126//3 90//3 89//3 125//3
f 131//4 95//4 90//4 126//4
f 128//5 92//5 91//5 127//5
f 130//6 94//6 92//6 128//6
f 127//4 91//4 93//4 129//4
f 54//3 68//3 98//3 96//3
f 131//5 136//5 100//5 95//5
f 39//3 78//3 99//3 93//3
f 125//6 89//6 96//6 132//6
f 302//6 299//6 97//6 133//6
f 130//5 133//5 97//5 94//5
f 266//4 263//4 100//4 136//4
f 138//3 102//3 101//3 137//3
f 143//4 107//4 102//4 138//4
f 140//5 104//5 103//5 139//5
f 142//6 106//6 104//6 140//6
f 139//4 103//4 105//4 141//4
f 56//3 72//3 110//3 108//3
f 137//6 101//6 108//6 144//6
f 303//6 300//6 109//6 145//6
f 142//5 145//5 109//5 106//5
f 267//4 264//4 112//4 148//4
f 143//5 148//5 112//5 107//5
f 43//3 80//3 111//3 105//3
f 150//3 114//3 113//3 149//3
f 155//4 119//4 114//4 150//4
f 152//5 116//5 115//5 151//5
f 154//6 118//6 116//6 152//6
f 151//4 115//4 117//4 153//4
f 58//3 76//3 122//3 120//3
f 155//5 160//5 124//5 119//5
f 149//6 113//6 120//6 156//6
f 304//6 301//6 121//6 157//6
f 154//5 157//5 121//5 118//5
f 268//4 265//4 124//4 160//4
f 47//3 82//3 123//3 117//3
f 96//3 98//3 134//3 132//3
f 93//3 99//3 135//3 129//3
f 10//3 126//3 125//3 9//3
f 59//4 131//4 126//4 10//4
f 12//5 128//5 127//5 11//5
f 38//6 130//6 128//6 12//6
f 11//4 127//4 129//4 37//4
f 59//5 83//5 136//5 131//5
f 9//6 125//6 132//6 53//6
f 281//6 302//6 133//6 65//6
f 38//5 65//5 133//5 130//5
f 257//4 266//4 136//4 83//4
f 108//3 110//3 146//3 144//3
f 105//3 111//3 147//3 141//3
f 18//3 138//3 137//3 17//3
f 61//4 143//4 138//4 18//4
f 20//5 140//5 139//5 19//5
f 42//6 142//6 140//6 20//6
f 19//4 139//4 141//4 41//4
f 17//6 137//6 144//6 55//6
f 283//6 303//6 145//6 69//6
f 42//5 69//5 145//5 142//5
f 259//4 267//4 148//4 85//4
f 61//5 85//5 148//5 143//5
f 120//3 122//3 158//3 156//3
f 117//3 123//3 159//3 153//3
f 26//3 150//3 149//3 25//3
f 63//4 155//4 150//4 26//4
f 28//5 152//5 151//5 27//5
f 46//6 154//6 152//6 28//6
f 27//4 151//4 153//4 45//4
f 63//5 87//5 160//5 155//5
f 25//6 149//6 156//6 57//6
f 285//6 304//6 157//6 73//6
f 46//5 73//5 157//5 154//5
f 261//4 268//4 160//4 87//4
f 239//1 161//1 162//1 240//1
f 241//2 242//2 164//2 163//2
f 248//6 241//6 163//6 170//6
f 239//6 243//6 165//6 161//6
f 244//6 245//6 167//6 166//6
f 246//6 247//6 169//6 168//6
f 208//4 200//4 164//4 172//4
f 198//4 207//4 171//4 162//4
f 233//6 252//6 174//6 185//6
f 243//1 251//1 173//1 165//1
f 202//2 210//2 174//2 166//2
f 234//6 254//6 176//6 187//6
f 245//1 253//1 175//1 167//1
f 204//2 212//2 176//2 168//2
f 235//6 256//6 178//6 189//6
f 206//2 214//2 178//2 170//2
f 247//1 255//1 177//1 169//1
f 221//4 216//4 180//4 186//4
f 216//4 217//4 181//4 180//4
f 222//4 218//4 182//4 188//4
f 218//4 219//4 183//4 182//4
f 223//4 220//4 184//4 190//4
f 250//1 262//1 184//1 172//1
f 207//2 215//2 179//2 171//2
f 224//4 221//4 186//4 192//4
f 225//4 222//4 188//4 194//4
f 226//4 223//4 190//4 196//4
f 251//6 236//6 191//6 173//6
f 215//4 224//4 192//4 179//4
f 253//6 237//6 193//6 175//6
f 217//4 225//4 194//4 181//4
f 255//6 238//6 195//6 177//6
f 219//4 226//4 196//4 183//4
f 161//1 197//1 198//1 162//1
f 163//2 164//2 200//2 199//2
f 170//6 163//6 199//6 206//6
f 161//6 165//6 201//6 197//6
f 166//6 167//6 203//6 202//6
f 168//6 169//6 205//6 204//6
f 185//6 174//6 210//6 227//6
f 165//1 173//1 209//1 201//1
f 187//6 176//6 212//6 228//6
f 167//1 175//1 211//1 203//1
f 189//6 178//6 214//6 229//6
f 169//1 177//1 213//1 205//1
f 172//1 184//1 220//1 208//1
f 173//6 191//6 230//6 209//6
f 175//6 193//6 231//6 211//6
f 177//6 195//6 232//6 213//6
f 280//4 272//4 200//4 208//4
f 270//4 279//4 207//4 198//4
f 274//2 282//2 210//2 202//2
f 276//2 284//2 212//2 204//2
f 278//2 286//2 214//2 206//2
f 293//4 288//4 216//4 221//4
f 288//4 289//4 217//4 216//4
f 294//4 290//4 218//4 222//4
f 290//4 291//4 219//4 218//4
f 295//4 292//4 220//4 223//4
f 279//2 287//2 215//2 207//2
f 296//4 293//4 221//4 224//4
f 297//4 294//4 222//4 225//4
f 298//4 295//4 223//4 226//4
f 287//4 296//4 224//4 215//4
f 289//4 297//4 225//4 217//4
f 291//4 298//4 226//4 219//4
f 172//4 164//4 242//4 250//4
f 162//4 171//4 249//4 240//4
f 166//2 174//2 252//2 244//2
f 168//2 176//2 254//2 246//2
f 170//2 178//2 256//2 248//2
f 186//4 180//4 258//4 263//4
f 180//4 181//4 259//4 258//4
f 188//4 182//4 260//4 264//4
f 182//4 183//4 261//4 260//4
f 190//4 184//4 262//4 265//4
f 171//2 179//2 257//2 249//2
f 192//4 186//4 263//4 266//4
f 194//4 188//4 264//4 267//4
f 196//4 190//4 265//4 268//4
f 179//4 192//4 266//4 257//4
f 181//4 194//4 267//4 259//4
f 183//4 196//4 268//4 261//4
f 49//1 239//1 240//1 50//1
f 51//2 52//2 242//2 241//2
f 58//6 51//6 241//6 248//6
f 49//6 53//6 243//6 239//6
f 54//6 55//6 245//6 244//6
f 56//6 57//6 247//6 246//6
f 98//6 68//6 252//6 233//6
f 53//1 67//1 251//1 243//1
f 110//6 72//6 254//6 234//6
f 55//1 71//1 253//1 245//1
f 122//6 76//6 256//6 235//6
f 57//1 75//1 255//1 247//1
f 64//1 88//1 262//1 250//1
f 134//6 98//6 233//6 236//6
f 146//6 110//6 234//6 237//6
f 158//6 122//6 235//6 238//6
f 67//6 134//6 236//6 251//6
f 71//6 146//6 237//6 253//6
f 75//6 158//6 238//6 255//6
f 197//1 269//1 270//1 198//1
f 199//2 200//2 272//2 271//2
f 206//6 199//6 271//6 278//6
f 197//6 201//6 273//6 269//6
f 202//6 203//6 275//6 274//6
f 204//6 205//6 277//6 276//6
f 227//6 210//6 282//6 299//6
f 201//1 209//1 281//1 273//1
f 228//6 212//6 284//6 300//6
f 203//1 211//1 283//1 275//1
f 229//6 214//6 286//6 301//6
f 205//1 213//1 285//1 277//1
f 208//1 220//1 292//1 280//1
f 209//6 230//6 302//6 281//6
f 211//6 231//6 303//6 283//6
f 213//6 232//6 304//6 285//6
f 47//4 36//4 272//4 280//4
f 34//4 37//4 279//4 270//4
f 40//2 66//2 282//2 274//2
f 44//2 70//2 284//2 276//2
f 48//2 74//2 286//2 278//2
f 99//4 78//4 288//4 293//4
f 78//4 79//4 289//4 288//4
f 111//4 80//4 290//4 294//4
f 80//4 81//4 291//4 290//4
f 123//4 82//4 292//4 295//4
f 37//2 77//2 287//2 279//2
f 135//4 99//4 293//4 296//4
f 147//4 111//4 294//4 297//4
f 159//4 123//4 295//4 298//4
f 77//4 135//4 296//4 287//4
f 79//4 147//4 297//4 289//4
f 81//4 159//4 298//4 291//4
f 304//6 232//6 195//6 238//6 235//6 189//6 229//6 301//6
f 231//6 193//6 187//6 228//6
f 230//6 191//6 185//6 227//6
f 346//1 316//1 328//1 345//1
f 344//5 327//5 324//5 343//5
f 342//2 312//2 306//2 341//2
f 340//1 309//1 315//1 339//1
f 338//3 318//3 321//3 337//3
f 336//2 305//2 317//2 335//2
f 329//2 323//2 311//2 330//2
f 331//1 320//1 308//1 332//1
f 333//1 314//1 326//1 334//1
f 320//6 317//6 305//6 308//6
f 321//6 318//6 306//6 309//6
f 322//6 319//6 307//6 310//6
f 308//6 305//6 311//6 314//6
f 309//6 306//6 312//6 315//6
f 310//6 307//6 313//6 316//6
f 314//6 311//6 323//6 326//6
f 315//6 312//6 324//6 327//6
f 316//6 313//6 325//6 328//6
f 348//1 322//1 310//1 347//1
f 350//2 325//2 313//2 349//2
f 352//2 307//2 319//2 351//2
f 335//3 317//3 320//3 331//3
f 332//1 308//1 314//1 333//1
f 330//2 311//2 305//2 336//2
f 334//5 326//5 323//5 329//5
f 339//1 315//1 327//1 344//1
f 337//1 321//1 309//1 340//1
f 343//2 324//2 312//2 342//2
f 341//2 306//2 318//2 338//2
f 351//3 319//3 322//3 348//3
f 347//1 310//1 316//1 346//1
f 349//2 313//2 307//2 352//2
f 345//5 328//5 325//5 350//5
f 185//2 336//2 335//2 233//2
f 299//2 329//2 330//2 227//2
f 236//1 331//1 332//1 191//1
f 230//1 333//1 334//1 302//1
f 233//3 335//3 331//3 236//3
f 336//5 185//5 191//5 332//5
f 333//3 230//3 227//3 330//3
f 302//5 334//5 329//5 299//5
f 303//5 344//5 343//5 300//5
f 341//5 187//5 193//5 340//5
f 339//3 231//3 228//3 342//3
f 234//3 338//3 337//3 237//3
f 231//1 339//1 344//1 303//1
f 237//1 337//1 340//1 193//1
f 300//2 343//2 342//2 228//2
f 187//2 341//2 338//2 234//2
f 232//1 346//1 345//1 304//1
f 238//1 348//1 347//1 195//1
f 301//2 350//2 349//2 229//2
f 189//2 352//2 351//2 235//2
f 235//3 351//3 348//3 238//3
f 352//5 189//5 195//5 347//5
f 304//5 345//5 350//5 301//5
f 346//3 232//3 229//3 349//3
f 349//4 352//4 347//4 346//4
f 340//4 339//4 342//4 341//4
f 330//4 336//4 332//4 333//4
